<svg width="367" height="132" xmlns="http://www.w3.org/2000/svg"><g fill="none" fill-rule="evenodd"><path d="M11.36 46.286l293.29 7.378a8 8 0 015.64 2.53l43.465 46.435a8 8 0 01-5.84 13.467H28.925a8 8 0 01-7.596-5.492L3.563 56.791a8 8 0 017.798-10.505z" fill="#7E6046"/><path d="M72.55 4.818c56.366 0 83.397 43.958 67.014 58.182-16.383 14.224-116.343 15.356-134.03 0C-12.154 47.644 16.182 4.818 72.549 4.818z" fill="#8D6849"/><g fill="#7BD669"><path d="M46.177 2.055C51.432 2.61 56.373 7.229 61 15.91c-8.388 2.258-14.009 3.278-16.864 3.061-6.748-.512-9.976-5-11.947-6.107-4.831-2.714 6.106-11.643 13.988-10.81z"/><path d="M74.329 2.055C69.249 2.61 64.473 7.229 60 15.91c8.108 2.258 13.542 3.278 16.302 3.061 6.523-.512 9.643-5 11.548-6.107 4.67-2.714-5.902-11.643-13.521-10.81z"/><path d="M58 16h3v30h-3z"/></g><path d="M87 33.818c42.055 0 67.055 19.394 75 58.182-86.803 10.237-136.803 10.237-150 0-19.795-15.356 11.917-58.182 75-58.182z" fill="#9F734F"/><path d="M240.378 10.096c53.235 0 78.765 38.071 63.292 50.39-15.473 12.319-109.88 13.3-126.584 0-16.705-13.3 10.056-50.39 63.292-50.39z" fill="#8D6849"/><g fill="#7BD669"><path d="M239.177 1.058c5.255.588 10.196 5.478 14.823 14.67-8.388 2.391-14.009 3.471-16.864 3.242-6.748-.543-9.976-5.295-11.947-6.467-4.831-2.874 6.106-12.328 13.988-11.445z"/><path d="M267.823 1.058c-5.255.588-10.196 5.478-14.823 14.67 8.388 2.391 14.009 3.471 16.864 3.242 6.748-.543 9.976-5.295 11.947-6.467 4.831-2.874-6.106-12.328-13.988-11.445z"/><path d="M252 16h3v30h-3z"/></g><path d="M265 30c40.373 0 64.373 19.333 72 58-83.331 10.205-131.331 10.205-144 0-19.003-15.308 11.44-58 72-58z" fill="#9F734F"/><g fill="#7BD669"><path d="M256.177 20.058c5.255.588 10.196 5.478 14.823 14.67-8.388 2.391-14.009 3.471-16.864 3.242-6.748-.543-9.976-5.295-11.947-6.467-4.831-2.874 6.106-12.328 13.988-11.445z"/><path d="M284.823 20.058c-5.255.588-10.196 5.478-14.823 14.67 8.388 2.391 14.009 3.471 16.864 3.242 6.748-.543 9.976-5.295 11.947-6.467 4.831-2.874-6.106-12.328-13.988-11.445z"/><path d="M269 35h3v30h-3z"/></g><path d="M278 58.818c63.083 0 92.705 44.447 75 58.182s-130.782 14.908-150 0c-19.218-14.908 11.917-58.182 75-58.182z" fill="#8E6746"/><g fill="#7BD669"><path d="M72.707 20.064c6.13.654 11.895 6.088 17.293 16.301-9.786 2.656-16.344 3.857-19.675 3.601-7.872-.603-11.638-5.882-13.937-7.185-5.637-3.193 7.123-13.697 16.319-12.717z"/><path d="M105.799 20.064c-5.956.654-11.555 6.088-16.799 16.301 9.506 2.656 15.877 3.857 19.112 3.601 7.648-.603 11.307-5.882 13.54-7.185 5.476-3.193-6.92-13.697-15.853-12.717zM87 37h4v35h-4z"/></g><path d="M100 60.818c63.083 0 93.335 43.958 75 58.182-18.335 14.224-130.205 15.356-150 0-19.795-15.356 11.917-58.182 75-58.182z" fill="#8E6746"/></g></svg>